<mxfile host="app.diagrams.net" modified="2024-05-31T07:21:51.313Z" agent="Mozilla/5.0 (Macintosh; Intel Mac OS X 10_15_7) AppleWebKit/537.36 (KHTML, like Gecko) Chrome/125.0.0.0 Safari/537.36" version="24.4.4" etag="Py0Y_WsTQ5BoTwRw1bDM" type="github">
  <diagram name="第 1 页" id="MM8bF0cDx3M1XTNIwwmq">
    <mxGraphModel>
      <root>
        <mxCell id="0" />
        <mxCell id="1" parent="0" />
      </root>
    </mxGraphModel>
  </diagram>
</mxfile>
